<?xml version="1.0" encoding="utf-8"?>
<!-- Generator: Adobe Illustrator 18.1.1, SVG Export Plug-In . SVG Version: 6.00 Build 0)  -->
<svg version="1.1" id="Layer_1" xmlns="http://www.w3.org/2000/svg" xmlns:xlink="http://www.w3.org/1999/xlink" x="0px" y="0px"
	 viewBox="0 0 135.71 62.98" style="enable-background:new 0 0 135.71 62.98;" xml:space="preserve">
<style type="text/css">
	.st0{display:none;fill:#171A21;}
	.st1{fill:#EDEDED;}
	.st2{fill:#3A7EED;}
	.st3{fill-rule:evenodd;clip-rule:evenodd;fill:#EDEDED;}
</style>
<rect x="-106.395" y="-63.51" class="st0" width="348" height="190"/>
<g>
	<g>
		<path class="st1" d="M0.563,59.946c0.745,0.383,1.889,0.764,3.072,0.764c1.272,0,1.945-0.529,1.945-1.327
			c0-0.764-0.583-1.199-2.054-1.728c-2.036-0.709-3.362-1.835-3.362-3.618c0-2.09,1.745-3.688,4.634-3.688
			c1.382,0,2.398,0.291,3.127,0.619l-0.619,2.234c-0.491-0.235-1.364-0.579-2.563-0.579c-1.199,0-1.781,0.544-1.781,1.18
			c0,0.782,0.69,1.126,2.272,1.726c2.162,0.802,3.181,1.926,3.181,3.653c0,2.055-1.583,3.799-4.944,3.799
			c-1.399,0-2.781-0.364-3.471-0.746L0.563,59.946z"/>
		<path class="st1" d="M12.655,52.875h-3.29v-2.327h9.415v2.327h-3.345V62.8h-2.781V52.875z"/>
		<path class="st1" d="M27.546,57.619h-4.508v2.908h5.035V62.8h-7.816V50.548h7.561v2.274h-4.78v2.543h4.508V57.619z"/>
		<path class="st1" d="M32.822,59.655L31.949,62.8h-2.871l3.745-12.252h3.634L40.254,62.8h-2.98l-0.946-3.146H32.822z
			 M35.929,57.582l-0.763-2.598c-0.217-0.727-0.437-1.634-0.619-2.361h-0.036c-0.181,0.727-0.364,1.652-0.564,2.361l-0.726,2.598
			H35.929z"/>
		<path class="st1" d="M52.257,58.11c-0.054-1.473-0.11-3.254-0.11-5.035h-0.054c-0.382,1.564-0.89,3.309-1.364,4.744l-1.491,4.78
			h-2.161l-1.31-4.744c-0.399-1.436-0.817-3.181-1.109-4.78h-0.036c-0.072,1.654-0.128,3.545-0.218,5.072L44.187,62.8h-2.564
			l0.782-12.252h3.691l1.198,4.091c0.381,1.417,0.764,2.943,1.036,4.38h0.055c0.345-1.417,0.764-3.036,1.163-4.401l1.309-4.071
			h3.617L55.147,62.8h-2.708L52.257,58.11z"/>
		<path class="st2" d="M57.464,50.548h1.582v10.924h5.234V62.8h-6.816V50.548z"/>
		<path class="st2" d="M67.628,50.548V62.8h-1.582V50.548H67.628z"/>
		<path class="st2" d="M70.392,50.712c0.689-0.144,1.783-0.254,2.891-0.254c1.582,0,2.597,0.273,3.362,0.889
			c0.635,0.473,1.018,1.2,1.018,2.162c0,1.183-0.781,2.219-2.074,2.69v0.037c1.163,0.292,2.528,1.255,2.528,3.073
			c0,1.054-0.418,1.854-1.036,2.453c-0.855,0.781-2.235,1.144-4.235,1.144c-1.092,0-1.926-0.07-2.454-0.145V50.712z M71.976,55.729
			h1.434c1.673,0,2.653-0.874,2.653-2.055c0-1.435-1.09-1.998-2.689-1.998c-0.727,0-1.145,0.054-1.398,0.107V55.729z M71.976,61.599
			c0.306,0.054,0.761,0.074,1.324,0.074c1.638,0,3.146-0.601,3.146-2.38c0-1.674-1.436-2.364-3.163-2.364h-1.307V61.599z"/>
		<path class="st2" d="M80.247,50.712c0.803-0.164,1.946-0.254,3.036-0.254c1.694,0,2.781,0.309,3.546,1
			c0.62,0.545,0.962,1.38,0.962,2.327c0,1.616-1.018,2.689-2.309,3.125v0.055c0.949,0.327,1.508,1.198,1.801,2.471
			c0.4,1.708,0.691,2.89,0.944,3.364h-1.635c-0.199-0.346-0.474-1.401-0.819-2.927c-0.36-1.689-1.018-2.327-2.452-2.38h-1.49V62.8
			h-1.584V50.712z M81.831,56.292h1.618c1.689,0,2.761-0.927,2.761-2.327c0-1.581-1.143-2.272-2.814-2.289
			c-0.765,0-1.311,0.072-1.564,0.144V56.292z"/>
		<path class="st2" d="M92.106,58.947L90.833,62.8h-1.635l4.161-12.252h1.911L99.449,62.8H97.76l-1.313-3.854H92.106z
			 M96.124,57.709l-1.199-3.526c-0.275-0.8-0.456-1.527-0.638-2.236h-0.036c-0.183,0.728-0.383,1.474-0.62,2.218l-1.197,3.544
			H96.124z"/>
		<path class="st2" d="M101.252,50.712c0.801-0.164,1.946-0.254,3.036-0.254c1.691,0,2.779,0.309,3.544,1
			c0.62,0.545,0.964,1.38,0.964,2.327c0,1.616-1.018,2.689-2.309,3.125v0.055c0.946,0.327,1.512,1.198,1.801,2.471
			c0.398,1.708,0.691,2.89,0.944,3.364h-1.635c-0.201-0.346-0.47-1.401-0.819-2.927c-0.362-1.689-1.018-2.327-2.452-2.38h-1.492
			V62.8h-1.582V50.712z M102.834,56.292h1.617c1.691,0,2.763-0.927,2.763-2.327c0-1.581-1.143-2.272-2.817-2.289
			c-0.763,0-1.311,0.072-1.564,0.144V56.292z"/>
		<path class="st2" d="M112.619,50.548V62.8h-1.584V50.548H112.619z"/>
		<path class="st2" d="M117.364,58.947l-1.275,3.854h-1.633l4.163-12.252h1.906l4.179,12.252h-1.691l-1.307-3.854H117.364z
			 M121.38,57.709l-1.199-3.526c-0.273-0.8-0.454-1.527-0.635-2.236h-0.038c-0.184,0.728-0.383,1.474-0.618,2.218l-1.201,3.544
			H121.38z"/>
		<path class="st2" d="M126.512,62.8V50.548h1.727l3.926,6.198c0.911,1.437,1.615,2.726,2.197,3.981l0.038-0.018
			c-0.145-1.637-0.183-3.128-0.183-5.035v-5.127h1.492V62.8h-1.6l-3.888-6.217c-0.857-1.364-1.676-2.763-2.289-4.09l-0.06,0.019
			c0.094,1.545,0.13,3.016,0.13,5.053V62.8H126.512z"/>
	</g>
	<g>
		<g>
			<g>
				<rect x="56.35" y="0" class="st2" width="5.776" height="39.752"/>
				<rect x="42.335" y="1.499" class="st2" width="11.827" height="38.253"/>
				<rect x="30.37" y="4.084" class="st2" width="9.792" height="35.669"/>
				<rect x="88.461" y="0.939" class="st2" width="9.792" height="38.813"/>
				<rect x="72.323" y="4.916" class="st2" width="7.814" height="34.837"/>
				<rect x="82.366" y="3.915" class="st2" width="3.907" height="35.837"/>
				<rect x="100.441" y="9.165" class="st2" width="5.157" height="30.587"/>
				<rect x="64.359" y="1.894" class="st2" width="5.776" height="37.859"/>
			</g>
		</g>
		<polygon class="st3" points="107.841,22.663 107.841,41.961 28.208,41.961 28.208,22.663 24.998,22.663 24.998,45.138 
			27.686,45.138 28.208,45.138 107.841,45.138 108.282,45.138 111.051,45.138 111.051,22.663 		"/>
	</g>
	<g>
		<path class="st1" d="M113.374,40.023c-0.025,0-0.048,0.007-0.073,0.007v5.109h5.195C118.492,42.312,116.201,40.023,113.374,40.023
			z"/>
		<path class="st1" d="M135.692,44.023c-0.007-0.2-0.16-0.364-0.358-0.386l-1.781-0.195c-0.027-0.329-0.069-0.653-0.111-0.977
			l1.7-0.587c0.187-0.064,0.299-0.255,0.265-0.45l-0.088-0.5c-0.035-0.197-0.208-0.338-0.408-0.332l-1.788,0.055
			c-0.073-0.322-0.157-0.638-0.245-0.954l1.599-0.817c0.176-0.09,0.26-0.294,0.199-0.482l-0.157-0.483
			c-0.062-0.19-0.254-0.306-0.45-0.272l-1.769,0.304c-0.117-0.308-0.23-0.617-0.362-0.917l1.461-1.025
			c0.162-0.113,0.217-0.328,0.13-0.505l-0.223-0.457c-0.088-0.179-0.294-0.268-0.484-0.207l-1.694,0.542
			c-0.159-0.288-0.34-0.563-0.512-0.843l1.315-1.229c0.144-0.135,0.169-0.355,0.059-0.519l-0.284-0.421
			c-0.112-0.166-0.328-0.224-0.508-0.137l-1.62,0.782c-0.197-0.263-0.384-0.534-0.594-0.787l1.119-1.385
			c0.124-0.154,0.118-0.375-0.014-0.522l-0.34-0.377c-0.134-0.148-0.356-0.176-0.522-0.065l-1.48,0.989
			c-0.232-0.233-0.482-0.446-0.725-0.667l0.927-1.546c0.102-0.169,0.065-0.388-0.086-0.515l-0.389-0.326
			c-0.153-0.128-0.377-0.125-0.526,0.008l-1.342,1.198c-0.262-0.199-0.518-0.404-0.789-0.59l0.695-1.643
			c0.077-0.182,0.01-0.393-0.157-0.498l-0.431-0.269c-0.169-0.106-0.391-0.071-0.52,0.081l-1.153,1.362
			c-0.286-0.16-0.582-0.303-0.877-0.45l0.464-1.737c0.051-0.191-0.044-0.39-0.225-0.471l-0.464-0.207
			c-0.183-0.081-0.397-0.016-0.504,0.153l-0.956,1.516c-0.306-0.119-0.613-0.235-0.925-0.339l0.216-1.776
			c0.024-0.196-0.098-0.381-0.288-0.435l-0.488-0.14c-0.192-0.055-0.395,0.039-0.477,0.221l-0.736,1.634
			c-0.319-0.075-0.639-0.143-0.964-0.203l-0.033-1.793c-0.004-0.198-0.15-0.363-0.346-0.391l-0.503-0.071
			c-0.198-0.028-0.386,0.094-0.442,0.286l-0.5,1.715c-0.324-0.029-0.654-0.036-0.982-0.05l-0.284-1.782
			c-0.031-0.195-0.199-0.339-0.397-0.339h-0.238v2.082v0.425v1.973c0.024,0,0.048-0.004,0.073-0.004
			c4.135,0,7.931,1.418,10.959,3.776l-5.039,4.835c-1.712-1.097-3.735-1.752-5.919-1.752c-0.025,0-0.048,0.007-0.073,0.007v3.27
			c0.025,0,0.048-0.007,0.073-0.007c4.272,0,7.734,3.461,7.738,7.732h3.27c-0.001-2.236-0.678-4.31-1.824-6.046l4.993-4.791
			c2.304,3.007,3.689,6.757,3.69,10.838h1.981h0.416h0.728l1.018-0.199c0.194-0.038,0.332-0.211,0.325-0.409L135.692,44.023z"/>
	</g>
	<g>
		<path class="st1" d="M22.675,40.023c0.025,0,0.048,0.007,0.073,0.007v5.109h-5.195C17.557,42.312,19.849,40.023,22.675,40.023z"/>
		<path class="st1" d="M0.357,44.023c0.007-0.2,0.16-0.364,0.358-0.386l1.781-0.195c0.027-0.329,0.069-0.653,0.111-0.977l-1.7-0.587
			c-0.187-0.064-0.299-0.255-0.265-0.45l0.088-0.5c0.035-0.197,0.208-0.338,0.408-0.332l1.788,0.055
			C3,40.329,3.085,40.013,3.173,39.697L1.574,38.88c-0.176-0.09-0.26-0.294-0.199-0.482l0.157-0.483
			c0.062-0.19,0.254-0.306,0.45-0.272l1.769,0.304c0.117-0.308,0.23-0.617,0.362-0.917l-1.461-1.025
			c-0.162-0.113-0.217-0.328-0.13-0.505l0.223-0.457c0.088-0.179,0.294-0.268,0.484-0.207l1.694,0.542
			c0.159-0.288,0.34-0.563,0.512-0.843l-1.315-1.229c-0.144-0.135-0.169-0.355-0.059-0.519l0.284-0.421
			c0.112-0.166,0.328-0.224,0.508-0.137l1.62,0.782c0.197-0.263,0.384-0.534,0.594-0.787l-1.119-1.385
			c-0.124-0.154-0.118-0.375,0.014-0.522L6.3,29.94c0.134-0.148,0.356-0.176,0.522-0.065l1.48,0.989
			c0.232-0.233,0.482-0.446,0.725-0.667L8.1,28.65c-0.102-0.169-0.065-0.388,0.086-0.515l0.389-0.326
			c0.153-0.128,0.377-0.125,0.526,0.008l1.342,1.198c0.262-0.199,0.518-0.404,0.789-0.59l-0.695-1.643
			c-0.077-0.182-0.01-0.393,0.157-0.498l0.431-0.269c0.169-0.106,0.391-0.071,0.52,0.081l1.153,1.362
			c0.286-0.16,0.582-0.303,0.877-0.45l-0.464-1.737c-0.051-0.191,0.044-0.39,0.225-0.471l0.464-0.207
			c0.183-0.081,0.397-0.016,0.504,0.153l0.956,1.516c0.306-0.119,0.613-0.235,0.925-0.339l-0.216-1.776
			c-0.024-0.196,0.098-0.381,0.288-0.435l0.488-0.14c0.192-0.055,0.395,0.039,0.477,0.221l0.736,1.634
			c0.319-0.075,0.639-0.143,0.964-0.203l0.033-1.793c0.004-0.198,0.15-0.363,0.346-0.391l0.503-0.071
			c0.198-0.028,0.386,0.094,0.442,0.286l0.5,1.715c0.324-0.029,0.654-0.036,0.982-0.05l0.284-1.782
			c0.031-0.195,0.199-0.339,0.397-0.339h0.238v2.082v0.425v1.973c-0.024,0-0.048-0.004-0.073-0.004
			c-4.135,0-7.931,1.418-10.959,3.776l5.039,4.835c1.712-1.097,3.735-1.752,5.919-1.752c0.025,0,0.048,0.007,0.073,0.007v3.27
			c-0.025,0-0.048-0.007-0.073-0.007c-4.272,0-7.734,3.461-7.738,7.732h-3.27c0.001-2.236,0.678-4.31,1.824-6.046l-4.993-4.791
			c-2.304,3.007-3.689,6.757-3.69,10.838H2.827H2.41H1.682L0.664,44.94c-0.194-0.038-0.332-0.211-0.325-0.409L0.357,44.023z"/>
	</g>
</g>
</svg>
